<svg width="29" height="30" viewBox="0 0 29 30" fill="none" xmlns="http://www.w3.org/2000/svg">
<path fill-rule="evenodd" clip-rule="evenodd" d="M15.2506 0.363304C14.7661 -0.121101 13.9808 -0.121102 13.4964 0.363304L0.365791 13.4939C-0.415616 14.2753 0.137808 15.6114 1.24288 15.6114L3.41991 15.6114C4.10496 15.6114 4.6603 16.1667 4.6603 16.8518V28.7598C4.6603 29.4448 5.21565 30.0002 5.9007 30.0002H9.87009C10.5551 30.0002 11.1105 29.4448 11.1105 28.7598V21.0692C11.1105 20.3842 11.6658 19.8288 12.3509 19.8288H16.3202C17.0052 19.8288 17.5606 20.3842 17.5606 21.0692V28.7598C17.5606 29.4448 18.1159 30.0002 18.801 30.0002H22.7701C23.4552 30.0002 24.0105 29.4448 24.0105 28.7598V16.8518C24.0105 16.1667 24.5658 15.6114 25.2509 15.6114H27.504C28.6091 15.6114 29.1625 14.2753 28.3811 13.4939L15.2506 0.363304Z" fill="#EBDDC1"/>
</svg>
